<svg xmlns="http://www.w3.org/2000/svg" viewBox="0 0 196 196"><defs><style>.cls-1{fill:#fff;}.cls-2{fill:#e4e4e4;}.cls-2,.cls-3{stroke:#000;}.cls-2,.cls-3,.cls-4{stroke-miterlimit:10;stroke-width:3px;}.cls-3{fill:#f0d9b6;}.cls-4{fill:none;stroke:#cacaca;}</style></defs><title>hermione</title><g id="Layer_2" data-name="Layer 2"><g id="Layer_3" data-name="Layer 3"><g id="hermione"><circle class="cls-1" cx="98" cy="98" r="98"/><path class="cls-2" d="M28.5,153.48c2.58-23.18,100.44-68.25,136.5,3.87H95.46Z"/><path class="cls-3" d="M96,49.18c-.34.82-.52,105.92-.52,105.92V49.18c0-14.17-63.1-14.17-64.38,0s-2.58,104.3-2.58,104.3c1.29-21.89,67-9,67,3.87V158c0-18.67,69.54-9.66,69.54-.64V51.75C158.9,31,102,34.54,96,49.18Z"/><line class="cls-4" x1="38.5" y1="56.5" x2="87.5" y2="55.5"/><line class="cls-4" x1="106.5" y1="55.5" x2="155.5" y2="54.5"/><line class="cls-4" x1="106.5" y1="68.5" x2="155.5" y2="67.5"/><line class="cls-4" x1="106.5" y1="79.5" x2="155.5" y2="78.5"/><line class="cls-4" x1="104.5" y1="92.5" x2="153.5" y2="91.5"/><line class="cls-4" x1="104.5" y1="105.5" x2="153.5" y2="104.5"/><line class="cls-4" x1="105.5" y1="117.5" x2="154.5" y2="116.5"/><line class="cls-4" x1="105.5" y1="131.5" x2="154.5" y2="130.5"/><line class="cls-4" x1="38.5" y1="69.5" x2="87.5" y2="68.5"/><line class="cls-4" x1="38.5" y1="80.5" x2="87.5" y2="79.5"/><line class="cls-4" x1="38.5" y1="93.5" x2="87.5" y2="92.5"/><line class="cls-4" x1="38.5" y1="106.5" x2="87.5" y2="105.5"/><line class="cls-4" x1="38.5" y1="118.5" x2="87.5" y2="117.5"/><line class="cls-4" x1="38.5" y1="131.5" x2="64" y2="131.5"/></g></g></g></svg>