<svg xmlns="http://www.w3.org/2000/svg" viewBox="0 0 402 402"><defs><style>.cls-1{fill:#b99a6f;}.cls-1,.cls-5{stroke:#000;stroke-miterlimit:10;stroke-width:10px;}.cls-2{font-size:57.37px;font-family:Impact, Impact;}.cls-3{font-size:239.02px;}.cls-3,.cls-4{font-family:BellMT, BellMT;}.cls-4{font-size:79.67px;}.cls-5{fill:none;}</style></defs><title>platform</title><g id="Layer_2" data-name="Layer 2"><g id="Layer_1-2" data-name="Layer 1"><g id="platform"><circle class="cls-1" cx="201" cy="201" r="196"/><text class="cls-2" transform="matrix(0.59, -0.81, 0.81, 0.59, 94.39, 122.72)"> </text><text class="cls-2" transform="translate(99.83 115.28) rotate(-48.53)"> </text><text class="cls-2" transform="matrix(0.72, -0.69, 0.69, 0.72, 105.92, 108.34)"> </text><text class="cls-2" transform="matrix(0.83, -0.56, 0.56, 0.83, 111.54, 101.82)">P</text><text class="cls-2" transform="translate(133.85 86.78) rotate(-23.37)">L</text><text class="cls-2" transform="translate(153.41 77.95) rotate(-12.66)">A</text><text class="cls-2" transform="matrix(1, -0.06, 0.06, 1, 177.14, 72.35)">T</text><text class="cls-2" transform="translate(201.97 70.89) rotate(5.63)">F</text><text class="cls-2" transform="translate(223.06 72.43) rotate(15.72)">O</text><text class="cls-2" transform="translate(251.36 80.17) rotate(27.82)">R</text><text class="cls-2" transform="matrix(0.74, 0.68, -0.68, 0.74, 277.1, 92.64)">M</text><text class="cls-3" transform="translate(96.63 288.64)">9</text><text class="cls-4" transform="translate(235.26 201)">3<tspan x="0" y="95.61">4</tspan></text><line class="cls-5" x1="225.7" y1="227.29" x2="287.05" y2="227.29"/></g></g></g></svg>