<svg xmlns="http://www.w3.org/2000/svg" viewBox="0 0 196 196"><defs><style>.cls-1{fill:#fff;}.cls-2{fill:#573b1c;}.cls-2,.cls-3,.cls-4{stroke:#000;stroke-miterlimit:10;}.cls-2,.cls-3{stroke-width:3px;}.cls-3{fill:#7f7f7f;}.cls-4{fill:#9dc44d;stroke-width:2px;}</style></defs><title>snape</title><g id="Layer_2" data-name="Layer 2"><g id="Layer_3" data-name="Layer 3"><g id="snape"><circle class="cls-1" cx="98" cy="98" r="98"/><path class="cls-2" d="M76.38,74.25,59,47.82c-8.34-9.74,0-13.91,5.57-5.56S87.5,74.94,87.5,74.94Z"/><path class="cls-3" d="M75.8,156.83A3.63,3.63,0,0,0,77,157h49.47c12.69,0,26.53-61.37,6.68-68.95a4,4,0,0,1-1.52-6.4h0a4,4,0,0,0-3-6.71H72.83a4,4,0,0,0-3,6.71l.68.76a4,4,0,0,1-1.19,6.26C50.63,97.49,60.77,151.76,75.8,156.83Z"/><path class="cls-4" d="M123.67,63.12a7,7,0,0,0-2.9.58A10.76,10.76,0,0,0,114.44,60a10.28,10.28,0,0,0-10.22,3.75,8.53,8.53,0,0,0-3.43-.48c-4.24.21-7.09,2.52-9.58,5.76-4.84,6.3,4.13,12.46,10,8.86a8.43,8.43,0,0,0,1.2.77,34.72,34.72,0,0,0-1.53,7.56c-1.34,12.83-1.18,26-.7,38.83.34,8.92,14.25,9,13.91,0-.36-9.61-.37-19.22.07-28.82.2-4.39-.44-11.1,2.26-14.92,1.35-1.91,3.2-3,4.61-4.73a7.14,7.14,0,0,0,2.67.49C132.61,77,132.63,63.12,123.67,63.12Z"/></g></g></g></svg>