<svg xmlns="http://www.w3.org/2000/svg" viewBox="0 0 196 196"><defs><style>.cls-1{fill:#fff;}.cls-2{fill:#264311;}</style></defs><title>voldmort</title><g id="Layer_2" data-name="Layer 2"><g id="Layer_3" data-name="Layer 3"><g id="voldmort"><circle class="cls-1" cx="98" cy="98" r="98"/><path class="cls-2" d="M121.68,96.9c-6.58,1.17-10.28,8.35-14.41,12.89-5.76,6.31-12.66,12-21.14,14-4.71,1.12-11.39,1.45-15-2.42-3.28-3.49-4.17-9.4-4.27-14C66.64,98.52,70.23,90,75,82.68c4.25-6.52,12.54-12.78,14.32-20.63,1.09-4.83-1.29-8.71-4.78-11.47A4.91,4.91,0,0,1,82.89,48c-.66-2.53-3.14-4.8-4.89-6-7.4-4.86-20-1.67-21,3-.91,4,6.46,10.63,14,11a17.6,17.6,0,0,0,6.21-.89A4.51,4.51,0,0,1,83,60.71l-.05.14c-.94,3.95-3.7,7.76-5.25,11.25a3.72,3.72,0,0,1-.61,1C73,78,69.88,84.34,66.45,90.16s-7.06,29.65,4.7,36.34c11.48,6.54,26.47-1.85,34.84-9.7a87.28,87.28,0,0,0,7.4-8c3-3.53,5.42-7.8,10.52-8.1,9.43-.56,16.09,6.28,17.18,14.65,1.2,9.17-7.65,16.46-13.32,23.06-4.19,4.87-8,15.59-5.77,22.57.78,2.44,0-3,1.15-5.13,2.46-4.52,4-10.54,6.89-14,2.54-3,5.21-5.89,7.6-9,3.74-4.88,7-10.58,7.42-16.85C146,103,134.19,94.67,121.68,96.9Z"/></g></g></g></svg>